<svg width="21" height="18" viewBox="0 0 21 18" fill="none" xmlns="http://www.w3.org/2000/svg">
<path d="M12.6238 11.5L11.9148 10.9457L12.6238 11.5ZM19.462 17.7215C19.8605 18.0186 20.4244 17.9365 20.7215 17.538C21.0186 17.1395 20.9365 16.5756 20.538 16.2785L19.462 17.7215ZM7.5 13.1C4.40721 13.1 1.9 10.5928 1.9 7.5H0.1C0.1 11.5869 3.41309 14.9 7.5 14.9V13.1ZM1.9 7.5C1.9 4.40721 4.40721 1.9 7.5 1.9V0.1C3.41309 0.1 0.1 3.41309 0.1 7.5H1.9ZM7.5 1.9C10.5928 1.9 13.1 4.40721 13.1 7.5H14.9C14.9 3.41309 11.5869 0.1 7.5 0.1V1.9ZM13.1 7.5C13.1 8.80059 12.6577 9.99537 11.9148 10.9457L13.3329 12.0543C14.3145 10.7987 14.9 9.21646 14.9 7.5H13.1ZM11.9148 10.9457C10.8884 12.2587 9.29267 13.1 7.5 13.1V14.9C9.86998 14.9 11.98 13.7849 13.3329 12.0543L11.9148 10.9457ZM20.538 16.2785L13.1618 10.7785L12.0859 12.2215L19.462 17.7215L20.538 16.2785Z" fill="#9D2550"/>
</svg>
