<svg width="140" height="24" viewBox="0 0 140 24" fill="none" xmlns="http://www.w3.org/2000/svg">
<path d="M8.16935 0C3.65733 0 0 3.75538 0 8.26741C0 11.3934 1.31717 14.4133 2.88876 17.0543C3.62552 18.284 4.43517 19.4673 5.31372 20.599C5.67415 21.0654 6.04519 21.5252 6.4255 21.9758C6.79255 22.4104 7.15696 22.9444 7.61943 23.2744C8.40787 23.8389 9.2374 22.8344 9.32485 22.0871C9.44411 21.0733 8.85046 20.0172 8.1561 19.3215C8.14682 19.3109 8.13755 19.3003 8.12827 19.2897C7.6393 18.6789 7.10661 17.9752 6.57258 17.1987C5.50321 15.6457 4.65911 14.139 4.05884 12.7198C3.36977 11.0806 3.01862 9.58193 3.01862 8.26608C3.01729 7.5704 3.15643 6.88001 3.42543 6.23865C3.6878 5.6132 4.06679 5.04207 4.54383 4.55973C5.52044 3.56722 6.8058 3.02127 8.16537 3.02127C9.52495 3.02127 10.8116 3.56722 11.7869 4.55973C12.7635 5.55224 13.2896 6.90386 12.7264 8.25151C12.525 8.73518 12.1421 9.2374 11.6345 9.43616C11.3046 9.5647 10.8766 9.52097 10.6261 9.25197C10.3757 8.98165 10.4525 8.58411 10.4035 8.25416C10.3531 7.93348 10.2379 7.62473 10.0643 7.35043C9.71311 6.78725 9.11681 6.42417 8.45558 6.36984C7.76121 6.31021 7.06288 6.61631 6.61101 7.14106C6.11144 7.71749 6.01073 8.50726 6.08627 9.24535C6.16842 10.0245 6.48778 10.76 7.00192 11.351C7.95203 12.4323 9.45206 12.9756 11.0131 12.802C11.4715 12.7503 11.9194 12.6323 12.3435 12.4521C12.0413 13.1094 11.6319 13.8038 11.3457 14.4676C11.0157 15.2309 10.7639 16.0538 10.8686 16.8966C10.9322 17.4187 11.3231 18.7637 12.093 18.602C12.3952 18.5384 12.5224 18.2151 12.6535 17.9739C12.8232 17.6612 13.0206 17.3657 13.2035 17.0609C13.6076 16.3851 13.9866 15.6934 14.3338 14.9871C15.3899 12.8338 16.3374 10.5055 16.3374 8.26476C16.3387 3.75538 12.6814 0 8.16935 0Z" fill="#00B4C4"/>
<path d="M33.0487 6.38965H26.2721H24.6581H22.5141L22.3418 6.53806V23.2213C22.6784 23.2783 23.0322 23.318 23.4019 23.3379C23.7716 23.3578 24.0923 23.3684 24.3626 23.3684C24.6342 23.3684 24.939 23.3578 25.2809 23.3379C25.6215 23.3167 25.9607 23.2783 26.2973 23.2213V16.4526C26.455 16.4552 26.6113 16.4566 26.765 16.4566H31.5461C31.6203 16.218 31.6733 15.9437 31.7064 15.631C31.7395 15.3196 31.7554 15.0519 31.7554 14.8306C31.7554 14.6173 31.7395 14.3523 31.7064 14.0356C31.6733 13.7189 31.6203 13.4499 31.5461 13.2286H26.765C26.6113 13.2286 26.455 13.2299 26.2973 13.2312V11.6636C26.2973 11.0382 26.2933 10.3889 26.2853 9.71702C26.2867 9.71702 26.2893 9.71702 26.2906 9.71702C26.8366 9.72497 27.4183 9.72894 28.0345 9.72894H31.1154C31.8217 9.72894 32.3491 9.58583 32.6989 9.29828C33.0474 9.01073 33.2223 8.54694 33.2223 7.90558C33.2223 7.67634 33.2078 7.41926 33.1786 7.13569C33.1495 6.85211 33.1057 6.60432 33.0487 6.38965Z" fill="white"/>
<path d="M42.2488 11.3683C41.4074 10.8263 40.3619 10.5547 39.1136 10.5547C37.8733 10.5547 36.8304 10.8237 35.9837 11.3617C35.1369 11.8997 34.4995 12.655 34.0676 13.629C33.6369 14.6029 33.4209 15.7505 33.4209 17.0729C33.4209 18.3795 33.6342 19.5204 34.0609 20.4984C34.4876 21.4763 35.125 22.2356 35.9704 22.7776C36.8158 23.3196 37.864 23.5912 39.1123 23.5912C40.3446 23.5912 41.3835 23.3222 42.2289 22.7842C43.0744 22.2462 43.7157 21.4882 44.1504 20.5103C44.585 19.5324 44.8036 18.3875 44.8036 17.0729C44.8036 15.7584 44.5876 14.6149 44.157 13.6409C43.7276 12.6683 43.0903 11.9103 42.2488 11.3683ZM40.7329 18.9082C40.6547 19.4582 40.4904 19.8954 40.2399 20.2201C39.9895 20.5448 39.6132 20.7064 39.1123 20.7064C38.6034 20.7064 38.2258 20.5448 37.9793 20.2201C37.7328 19.8954 37.5712 19.4582 37.493 18.9082C37.4148 18.3583 37.3764 17.7461 37.3764 17.0729C37.3764 16.3918 37.4148 15.7757 37.493 15.2244C37.5712 14.6745 37.7328 14.2372 37.9793 13.9125C38.2258 13.5879 38.6034 13.4262 39.1123 13.4262C39.6132 13.4262 39.9895 13.5892 40.2399 13.9125C40.4904 14.2372 40.6547 14.6745 40.7329 15.2244C40.8111 15.7743 40.8495 16.3905 40.8495 17.0729C40.8508 17.7461 40.8111 18.3583 40.7329 18.9082Z" fill="white"/>
<path d="M53.4114 10.752C52.6879 10.752 52.0929 10.919 51.6251 11.2516C51.1574 11.5842 50.785 12.0255 50.5107 12.5767C50.4444 12.7079 50.3835 12.8431 50.3265 12.9822C50.1715 12.6165 49.9833 12.2865 49.7594 11.9923C49.1803 11.233 48.3243 10.8116 47.19 10.7295C46.9514 10.919 46.7156 11.2105 46.481 11.6041C46.2465 11.999 46.0928 12.3673 46.0186 12.7132C46.216 12.8523 46.4187 13.1319 46.6281 13.5507C46.8375 13.9694 46.9422 14.5405 46.9422 15.2627V23.2227C47.2297 23.2717 47.5438 23.3088 47.8843 23.334C48.2249 23.3592 48.5562 23.3711 48.8755 23.3711C49.2041 23.3711 49.5394 23.3592 49.8799 23.334C50.2205 23.3088 50.5266 23.2731 50.7983 23.2227V15.5383C50.9281 15.3383 51.0659 15.158 51.2104 15.0043C51.4277 14.7751 51.6675 14.6002 51.9312 14.4809C52.1936 14.3616 52.4891 14.302 52.8177 14.302C53.0311 14.3272 53.2404 14.355 53.4458 14.3881C53.6512 14.4213 53.8646 14.4783 54.0859 14.5604C54.3973 14.0184 54.6358 13.3956 54.8001 12.6933C54.9644 11.991 55.0466 11.4146 55.0466 10.9627C54.8001 10.9057 54.5603 10.8567 54.3257 10.8143C54.0951 10.7719 53.789 10.752 53.4114 10.752Z" fill="white"/>
<path d="M61.5958 10.9404V7.38906L61.4236 7.2168H59.9209C59.1656 7.2168 58.6289 7.38774 58.3135 7.72829C57.9968 8.06885 57.8391 8.67045 57.8391 9.5331V10.9298L55.9045 10.9006C55.7985 11.3366 55.7441 11.7832 55.7441 12.2443C55.7441 12.7531 55.7971 13.2183 55.9045 13.637L57.8391 13.6012V19.9207C57.8391 21.0961 58.1015 21.9601 58.6276 22.5139C59.1537 23.0678 59.9752 23.3461 61.0923 23.3461C61.5852 23.3461 62.1272 23.3209 62.7182 23.2719C63.3092 23.2229 63.8313 23.1659 64.2832 23.0997C64.3163 22.9764 64.3401 22.8373 64.3574 22.6809C64.3733 22.5246 64.3825 22.3775 64.3825 22.237C64.3825 21.6129 64.2792 21.0046 64.0751 20.4136H62.6917C62.2968 20.4136 62.0159 20.3129 61.8476 20.1115C61.6793 19.9101 61.5945 19.6252 61.5945 19.2555V13.5906L64.5151 13.637C64.6303 13.2183 64.6873 12.7545 64.6873 12.2443C64.6873 11.7845 64.6303 11.3366 64.5151 10.9006L61.5958 10.9404Z" fill="white"/>
<path d="M76.1003 17.1525C76.1493 16.7867 76.1745 16.3296 76.1745 15.7783C76.1745 14.7924 75.9717 13.9059 75.5649 13.1175C75.1581 12.329 74.5711 11.7049 73.8025 11.2451C73.034 10.7853 72.113 10.5547 71.037 10.5547C69.7305 10.5547 68.6717 10.8462 67.8581 11.4293C67.0445 12.0123 66.4508 12.8034 66.0771 13.8012C65.7034 14.799 65.5166 15.9188 65.5166 17.1591C65.5166 17.9727 65.6001 18.7625 65.7697 19.531C65.938 20.2996 66.2282 20.9873 66.639 21.5943C67.0498 22.2025 67.6103 22.6875 68.3205 23.0479C69.0308 23.4097 69.9239 23.5899 70.9999 23.5899C71.8785 23.5899 72.7517 23.468 73.6183 23.2268C74.485 22.9843 75.2297 22.6371 75.8551 22.1853C75.7982 21.8076 75.6829 21.4048 75.5106 20.9781C75.3383 20.5514 75.1078 20.1936 74.8202 19.906C74.3273 20.1114 73.8118 20.2864 73.2738 20.4295C72.7358 20.5739 72.1872 20.6455 71.6293 20.6455C70.9721 20.6455 70.4831 20.4971 70.1638 20.2015C69.8444 19.906 69.6337 19.5178 69.5357 19.0368C69.488 18.8062 69.4535 18.5664 69.4283 18.3159H75.8432C75.9651 17.9064 76.0512 17.5182 76.1003 17.1525ZM72.6258 15.6683H69.4045C69.4469 14.9607 69.5608 14.4134 69.749 14.0291C69.9915 13.5362 70.4129 13.2897 71.0118 13.2897C71.3975 13.2897 71.7102 13.3865 71.9487 13.5786C72.1872 13.7721 72.3595 14.0265 72.4668 14.3432C72.5728 14.6599 72.6272 15.0071 72.6272 15.3847V15.6683H72.6258Z" fill="white"/>
<path d="M89.1449 7.90558C89.1449 7.65116 89.1264 7.38614 89.0893 7.11051C89.0522 6.83489 89.0045 6.59504 88.9475 6.38965H76.7498C76.6928 6.68515 76.6557 6.97668 76.6385 7.26423C76.6226 7.55178 76.6133 7.81017 76.6133 8.04075C76.6133 8.26204 76.6212 8.51514 76.6385 8.79871C76.6544 9.08229 76.6915 9.37116 76.7498 9.66799H79.3006C79.4808 9.66799 79.7406 9.66401 80.0771 9.65606C80.4137 9.64811 80.6721 9.64414 80.8537 9.64414H80.8788C80.8788 9.98867 80.8749 10.2948 80.8669 10.5624C80.859 10.8288 80.855 11.1309 80.855 11.4675V23.2213C81.1916 23.2783 81.5361 23.318 81.8899 23.3379C82.2424 23.3578 82.5591 23.3684 82.8387 23.3684C83.1103 23.3684 83.4217 23.3578 83.7755 23.3379C84.128 23.3167 84.4739 23.2783 84.8105 23.2213V11.4675C84.8105 11.1309 84.8065 10.8288 84.7985 10.5624C84.7906 10.2961 84.7866 9.98999 84.7866 9.64414H84.8078C84.988 9.64414 85.2477 9.64811 85.5843 9.65606C85.9209 9.66401 86.1793 9.66799 86.3608 9.66799H87.0883C87.7946 9.66799 88.3141 9.53415 88.6467 9.2678C88.978 9.00013 89.1449 8.54694 89.1449 7.90558Z" fill="white"/>
<path d="M96.094 10.752C95.3705 10.752 94.7755 10.919 94.3078 11.2516C93.84 11.5842 93.4676 12.0255 93.1933 12.5767C93.1271 12.7079 93.0661 12.8431 93.0091 12.9822C92.8541 12.6165 92.6659 12.2865 92.442 11.9923C91.8629 11.233 91.0069 10.8116 89.8726 10.7295C89.6341 10.919 89.3982 11.2105 89.1636 11.6041C88.9291 11.999 88.7754 12.3673 88.7012 12.7132C88.8986 12.8523 89.1014 13.1319 89.3107 13.5507C89.5201 13.9694 89.6248 14.5405 89.6248 15.2627V23.2227C89.9123 23.2717 90.2264 23.3088 90.5669 23.334C90.9075 23.3592 91.2388 23.3711 91.5581 23.3711C91.8868 23.3711 92.222 23.3592 92.5626 23.334C92.9031 23.3088 93.2092 23.2731 93.4809 23.2227V15.5383C93.6107 15.3383 93.7486 15.158 93.893 15.0043C94.1103 14.7751 94.3502 14.6002 94.6139 14.4809C94.8762 14.3616 95.1717 14.302 95.5004 14.302C95.7137 14.3272 95.9231 14.355 96.1285 14.3881C96.3339 14.4213 96.5472 14.4783 96.7685 14.5604C97.0799 14.0184 97.3184 13.3956 97.4827 12.6933C97.6471 11.991 97.7292 11.4146 97.7292 10.9627C97.4827 10.9057 97.2429 10.8567 97.0084 10.8143C96.7778 10.7719 96.4717 10.752 96.094 10.752Z" fill="white"/>
<path d="M108.768 20.782C108.657 20.5103 108.601 20.1989 108.601 19.8451V14.8309C108.601 13.7959 108.385 12.9704 107.955 12.3542C107.524 11.738 106.973 11.2968 106.303 11.0291C105.634 10.7627 104.943 10.6289 104.227 10.6289C103.693 10.6289 103.094 10.6726 102.429 10.7588C101.764 10.8449 101.094 10.9708 100.42 11.1351C99.7467 11.2994 99.1345 11.4929 98.5846 11.7142C98.6257 12.1912 98.7224 12.6775 98.8748 13.1745C99.0272 13.6714 99.2379 14.0755 99.5095 14.3883C100.159 14.1988 100.795 14.0212 101.419 13.8529C102.043 13.6846 102.618 13.5998 103.144 13.5998C103.702 13.5998 104.112 13.731 104.37 13.9947C104.628 14.2571 104.758 14.648 104.758 15.1648V15.6127C104.639 15.6061 104.518 15.5994 104.395 15.5955C103.832 15.5795 103.367 15.5703 102.997 15.5703C102.152 15.5703 101.357 15.7227 100.613 16.0261C99.87 16.3296 99.2684 16.7987 98.8085 17.4307C98.3487 18.0628 98.1182 18.8725 98.1182 19.8584C98.1182 20.4494 98.2533 21.0311 98.525 21.6022C98.7966 22.1733 99.2087 22.6477 99.7626 23.0254C100.317 23.403 101.018 23.5925 101.863 23.5925C102.602 23.5925 103.246 23.4706 103.798 23.2295C104.348 22.987 104.829 22.6835 105.239 22.3178C105.315 22.2502 105.389 22.1813 105.462 22.1137C105.69 22.4251 105.98 22.6968 106.33 22.9273C106.802 23.2401 107.399 23.403 108.123 23.4203C108.361 23.2308 108.599 22.9393 108.837 22.5457C109.076 22.1508 109.227 21.7864 109.293 21.4485C109.054 21.2736 108.879 21.0523 108.768 20.782ZM102.996 20.7449C102.651 20.7449 102.376 20.6362 102.17 20.4189C101.965 20.2016 101.863 19.9286 101.863 19.6C101.863 19.1401 101.984 18.7638 102.226 18.4723C102.469 18.1808 102.861 18.035 103.403 18.035C103.731 18.035 104.143 18.0416 104.64 18.0535C104.681 18.0549 104.719 18.0575 104.757 18.0588V20.024C104.675 20.0916 104.591 20.1565 104.504 20.2161C103.992 20.5673 103.489 20.7449 102.996 20.7449Z" fill="white"/>
<path d="M120.249 10.8635C119.895 10.8224 119.555 10.8012 119.226 10.8012C118.988 10.8012 118.752 10.8118 118.517 10.8317C118.283 10.8529 118.055 10.8873 117.834 10.9363L115.678 20.2877C115.603 20.2877 115.548 20.2798 115.511 20.2625C115.474 20.2466 115.447 20.1883 115.431 20.0903C115.39 19.8438 115.342 19.5483 115.289 19.2038C115.236 18.8592 115.177 18.5014 115.11 18.1317C115.044 17.762 114.971 17.4175 114.889 17.0968L113.78 12.5013C113.624 11.8361 113.365 11.3697 113.004 11.1033C112.642 10.837 112.157 10.7031 111.55 10.7031C111.237 10.7031 110.891 10.7548 110.508 10.8568C110.127 10.9602 109.768 11.0808 109.43 11.2199L112.374 21.5333C112.595 22.2886 112.915 22.7842 113.33 23.0175C113.744 23.252 114.317 23.3686 115.048 23.3686C115.533 23.3686 116.027 23.3567 116.532 23.3315C117.037 23.3063 117.504 23.2705 117.93 23.2202C118.152 22.5139 118.406 21.6632 118.694 20.6693C118.981 19.6755 119.281 18.6234 119.593 17.5156C119.905 16.4064 120.211 15.3119 120.512 14.2319C120.811 13.1519 121.084 12.1647 121.331 11.269L121.219 11.0967C120.926 10.9814 120.602 10.9045 120.249 10.8635Z" fill="white"/>
<path d="M129.798 11.2451C129.029 10.7853 128.108 10.5547 127.032 10.5547C125.726 10.5547 124.667 10.8462 123.853 11.4293C123.04 12.0123 122.446 12.8034 122.072 13.8012C121.699 14.799 121.512 15.9188 121.512 17.1591C121.512 17.9727 121.595 18.7625 121.765 19.531C121.933 20.2996 122.223 20.9873 122.634 21.5943C123.045 22.2025 123.605 22.6875 124.316 23.0479C125.026 23.4097 125.919 23.5899 126.995 23.5899C127.874 23.5899 128.747 23.468 129.613 23.2268C130.48 22.9843 131.225 22.6371 131.85 22.1853C131.793 21.8076 131.678 21.4048 131.506 20.9781C131.333 20.5514 131.103 20.1936 130.815 19.906C130.322 20.1114 129.807 20.2864 129.269 20.4295C128.731 20.5739 128.182 20.6455 127.624 20.6455C126.967 20.6455 126.478 20.4971 126.159 20.2016C125.84 19.906 125.629 19.5178 125.531 19.0368C125.483 18.8062 125.449 18.5664 125.423 18.3159H131.838C131.962 17.9051 132.048 17.5169 132.097 17.1511C132.146 16.7854 132.171 16.3282 132.171 15.777C132.171 14.7911 131.968 13.9046 131.561 13.1161C131.153 12.329 130.565 11.7049 129.798 11.2451ZM128.621 15.6683H125.4C125.442 14.9607 125.556 14.4134 125.744 14.0291C125.987 13.5362 126.408 13.2897 127.007 13.2897C127.393 13.2897 127.705 13.3865 127.944 13.5786C128.182 13.7721 128.355 14.0265 128.462 14.3432C128.568 14.6599 128.622 15.0071 128.622 15.3847V15.6683H128.621Z" fill="white"/>
<path d="M139.691 20.4121H139.014C138.629 20.4121 138.353 20.3114 138.189 20.11C138.024 19.9086 137.942 19.6197 137.942 19.242V7.40078C137.942 6.54608 137.785 5.94712 137.468 5.60259C137.151 5.25806 136.616 5.08447 135.86 5.08447H134.358L134.186 5.25674V19.9192C134.186 21.0945 134.417 21.9585 134.881 22.5124C135.345 23.0663 136.136 23.3446 137.253 23.3446C137.721 23.3446 138.187 23.3194 138.651 23.2704C139.115 23.2214 139.532 23.1644 139.902 23.0981C139.943 22.9749 139.97 22.8358 139.982 22.6794C139.994 22.523 140 22.3759 140 22.2355C139.999 21.6113 139.897 21.0031 139.691 20.4121Z" fill="white"/>
</svg>
